<svg width="24" height="24" viewBox="0 0 24 24" fill="none" xmlns="http://www.w3.org/2000/svg">
<rect x="1" y="1" width="22" height="22" rx="11" stroke="#ECCD43" stroke-width="2"/>
<path d="M8.875 18C8.53125 18 8.23708 17.8696 7.9925 17.6087C7.7475 17.3473 7.625 17.0333 7.625 16.6667V8H7V6.66667H10.125V6H13.875V6.66667H17V8H16.375V16.6667C16.375 17.0333 16.2527 17.3473 16.0081 17.6087C15.7631 17.8696 15.4688 18 15.125 18H8.875ZM15.125 8H8.875V16.6667H15.125V8ZM10.125 15.3333H11.375V9.33333H10.125V15.3333ZM12.625 15.3333H13.875V9.33333H12.625V15.3333Z" fill="#ECCD43"/>
</svg>
