<svg width="16" height="16" viewBox="0 0 16 16" fill="none" xmlns="http://www.w3.org/2000/svg">
<rect width="16" height="16" rx="8" fill="url(#paint0_linear_2957_10060)"/>
<path fill-rule="evenodd" clip-rule="evenodd" d="M3.62069 7.91547C5.95286 6.89938 7.508 6.22952 8.28612 5.90587C10.5078 4.9818 10.9694 4.82128 11.2703 4.81597C11.3365 4.81481 11.4845 4.83121 11.5803 4.90899C11.6613 4.97466 11.6835 5.06337 11.6942 5.12563C11.7049 5.1879 11.7181 5.32974 11.7076 5.44057C11.5872 6.70556 11.0662 9.77535 10.8012 11.1922C10.6891 11.7917 10.4683 11.9927 10.2545 12.0123C9.78992 12.0551 9.43714 11.7053 8.98717 11.4104C8.28307 10.9488 7.8853 10.6615 7.20184 10.2111C6.41199 9.69061 6.92402 9.40454 7.37415 8.93701C7.49195 8.81466 9.53888 6.95282 9.5785 6.78392C9.58345 6.7628 9.58805 6.68406 9.54128 6.64248C9.4945 6.60091 9.42546 6.61512 9.37564 6.62643C9.30502 6.64246 8.1802 7.38592 6.00119 8.85681C5.68192 9.07605 5.39273 9.18287 5.13362 9.17727C4.84798 9.1711 4.29852 9.01577 3.89006 8.88299C3.38905 8.72014 2.99087 8.63403 3.02554 8.35745C3.0436 8.2134 3.24199 8.06607 3.62069 7.91547Z" fill="white"/>
<defs>
<linearGradient id="paint0_linear_2957_10060" x1="8" y1="0" x2="8" y2="15.8813" gradientUnits="userSpaceOnUse">
<stop stop-color="#2AABEE"/>
<stop offset="1" stop-color="#229ED9"/>
</linearGradient>
</defs>
</svg>
