<svg width="16" height="16" viewBox="0 0 16 16" fill="none" xmlns="http://www.w3.org/2000/svg">
<rect width="16" height="16" rx="8" fill="url(#paint0_linear_2957_10069)"/>
<path d="M3.14648 12.6543L3.83244 10.1634C3.40835 9.43228 3.18588 8.60428 3.1882 7.75783C3.1882 5.10546 5.3573 2.94897 8.02001 2.94897C9.31313 2.94897 10.5275 3.44946 11.4382 4.35819C12.3513 5.26691 12.8541 6.47547 12.8518 7.76014C12.8518 10.4125 10.6827 12.569 8.0177 12.569H8.01538C7.2066 12.569 6.41173 12.366 5.70491 11.9832L3.14648 12.6543ZM5.82774 11.1137L5.97373 11.2013C6.59017 11.5657 7.29698 11.7571 8.0177 11.7594H8.02001C10.2331 11.7594 12.0361 9.96737 12.0361 7.76244C12.0361 6.69458 11.619 5.69129 10.8612 4.93479C10.1034 4.17829 9.09298 3.76314 8.02001 3.76314C5.80688 3.76083 4.00393 5.55291 4.00393 7.75783C4.00393 8.51203 4.21481 9.24777 4.61804 9.88434L4.71306 10.0366L4.30751 11.5104L5.82774 11.1137Z" fill="white"/>
<path d="M3.31641 12.4861L3.97919 10.0805C3.569 9.37702 3.35348 8.57669 3.35348 7.76023C3.3558 5.20012 5.44843 3.11743 8.02077 3.11743C9.26985 3.11743 10.4402 3.60178 11.3208 4.47821C12.2014 5.35465 12.6857 6.52169 12.6857 7.76253C12.6857 10.3226 10.5908 12.4053 8.02077 12.4053H8.01845C7.23748 12.4053 6.47041 12.2093 5.78909 11.8403L3.31641 12.4861Z" fill="url(#paint1_linear_2957_10069)"/>
<path d="M3.14648 12.6543L3.83244 10.1634C3.40835 9.43228 3.18588 8.60428 3.1882 7.75783C3.1882 5.10546 5.3573 2.94897 8.02001 2.94897C9.31313 2.94897 10.5275 3.44946 11.4382 4.35819C12.3513 5.26691 12.8541 6.47547 12.8518 7.76014C12.8518 10.4125 10.6827 12.569 8.0177 12.569H8.01538C7.2066 12.569 6.41173 12.366 5.70491 11.9832L3.14648 12.6543ZM5.82774 11.1137L5.97373 11.2013C6.59017 11.5657 7.29698 11.7571 8.0177 11.7594H8.02001C10.2331 11.7594 12.0361 9.96737 12.0361 7.76244C12.0361 6.69458 11.619 5.69129 10.8612 4.93479C10.1034 4.17829 9.09298 3.76314 8.02001 3.76314C5.80688 3.76083 4.00393 5.55291 4.00393 7.75783C4.00393 8.51203 4.21481 9.24777 4.61804 9.88434L4.71306 10.0366L4.30751 11.5104L5.82774 11.1137Z" fill="url(#paint2_linear_2957_10069)"/>
<path fill-rule="evenodd" clip-rule="evenodd" d="M6.81318 5.74675C6.7228 5.54609 6.62778 5.54148 6.54204 5.53917C6.47252 5.53687 6.39141 5.53687 6.3103 5.53687C6.22919 5.53687 6.09941 5.56685 5.98818 5.68678C5.87694 5.80671 5.56641 6.09732 5.56641 6.69007C5.56641 7.28051 5.99976 7.8525 6.06002 7.93322C6.12027 8.01395 6.8966 9.26632 8.12252 9.74836C9.14218 10.1497 9.35075 10.069 9.57091 10.0482C9.79106 10.0274 10.2847 9.75759 10.3866 9.47621C10.4863 9.19482 10.4863 8.95496 10.4562 8.90422C10.426 8.85348 10.3449 8.82349 10.2244 8.76353C10.1039 8.70356 9.51065 8.41295 9.39942 8.37144C9.28818 8.33223 9.20707 8.31147 9.12828 8.4314C9.04717 8.55134 8.81543 8.82119 8.7459 8.90191C8.67638 8.98264 8.60454 8.99186 8.48404 8.93189C8.36353 8.87193 7.9742 8.74508 7.51304 8.33454C7.15384 8.01625 6.91051 7.62186 6.84099 7.50192C6.77146 7.38199 6.83403 7.31741 6.89429 7.25744C6.94759 7.2044 7.01479 7.11675 7.07505 7.04756C7.1353 6.97837 7.15615 6.92763 7.19555 6.8469C7.23495 6.76618 7.21641 6.69699 7.18628 6.63702C7.15616 6.57936 6.91978 5.98431 6.81318 5.74675Z" fill="white"/>
<defs>
<linearGradient id="paint0_linear_2957_10069" x1="7.99958" y1="15.9992" x2="7.99958" y2="-0.000559799" gradientUnits="userSpaceOnUse">
<stop stop-color="#20B038"/>
<stop offset="1" stop-color="#60D66A"/>
</linearGradient>
<linearGradient id="paint1_linear_2957_10069" x1="8.00082" y1="12.4856" x2="8.00082" y2="3.1171" gradientUnits="userSpaceOnUse">
<stop stop-color="#20B038"/>
<stop offset="1" stop-color="#60D66A"/>
</linearGradient>
<linearGradient id="paint2_linear_2957_10069" x1="8.00011" y1="12.6534" x2="8.00011" y2="2.94897" gradientUnits="userSpaceOnUse">
<stop stop-color="#F9F9F9"/>
<stop offset="1" stop-color="white"/>
</linearGradient>
</defs>
</svg>
