<svg width="24" height="24" viewBox="0 0 24 24" fill="none" xmlns="http://www.w3.org/2000/svg">
<path d="M8.75 10.5V8.5H10.75V10.5H8.75Z" fill="#292929"/>
<path d="M10.75 10.5H8.75V8.5H10.75V10.5ZM10.75 10.5V12" stroke="#292929" stroke-width="1.5" stroke-linecap="round" stroke-linejoin="round"/>
<path d="M13.25 10.5V8.5H15.25V10.5H13.25Z" fill="#292929"/>
<path d="M15.25 10.5H13.25V8.5H15.25V10.5ZM15.25 10.5V12" stroke="#292929" stroke-width="1.5" stroke-linecap="round" stroke-linejoin="round"/>
<path d="M5.25 13.875V7.25C5.25 6.14543 6.14543 5.25 7.25 5.25H16.75C17.8546 5.25 18.75 6.14543 18.75 7.25V13.25C18.75 14.3546 17.8546 15.25 16.75 15.25H12.7515C12.267 15.25 11.799 15.4258 11.4345 15.7448L8 18.75V16.625C8 15.8656 7.38439 15.25 6.625 15.25C5.86561 15.25 5.25 14.6344 5.25 13.875Z" stroke="#292929" stroke-width="1.5" stroke-linejoin="round"/>
</svg>
