<svg width="75" height="80" viewBox="0 0 75 80" fill="none" xmlns="http://www.w3.org/2000/svg">
<rect width="75" height="80" fill="white"/>
<g clip-path="url(#clip0_1521_6790)">
<path d="M25.4062 45.3801V33.6219C25.4062 33.022 25.6941 32.4585 26.1801 32.1069L36.4038 24.7098C37.058 24.2366 37.942 24.2366 38.5962 24.7098L48.8199 32.1069C49.3059 32.4585 49.5938 33.022 49.5938 33.6219V45.3801C49.5938 46.4129 48.7565 47.2501 47.7237 47.2501H42.0312C41.7551 47.2501 41.5312 47.0262 41.5312 46.7501V42.0812C41.5312 41.6425 41.4541 41.1989 41.2046 40.8267C40.8781 40.3398 40.4424 39.9207 39.9242 39.5993C39.2066 39.1543 38.363 38.9167 37.5 38.9167C36.637 38.9167 35.7934 39.1543 35.0758 39.5993C34.5576 39.9207 34.1219 40.3398 33.7954 40.8267C33.5459 41.1989 33.4688 41.6425 33.4688 42.0812V46.7501C33.4688 47.0262 33.2449 47.2501 32.9687 47.2501H27.2763C26.2435 47.2501 25.4062 46.4129 25.4062 45.3801Z" stroke="#656565" stroke-width="1.5" stroke-linecap="round" stroke-linejoin="round"/>
</g>
<defs>
<clipPath id="clip0_1521_6790">
<rect width="43" height="40" fill="white" transform="translate(16 16)"/>
</clipPath>
</defs>
</svg>
