<svg width="32" height="32" viewBox="0 0 32 32" fill="none" xmlns="http://www.w3.org/2000/svg">
<path d="M7 23V9C7 7.89543 7.89543 7 9 7H23C24.1046 7 25 7.89543 25 9V23C25 24.1046 24.1046 25 23 25H9C7.89543 25 7 24.1046 7 23Z" stroke="#9E9E9E" stroke-width="1.5" stroke-linejoin="round"/>
<path d="M7 19.6667H14.9191C15.1843 19.6667 15.4387 19.5613 15.6262 19.3738L19.2929 15.7071C19.6834 15.3166 20.3166 15.3166 20.7071 15.7071L25 20" stroke="#9E9E9E" stroke-width="1.5" stroke-linejoin="round"/>
<path d="M11.333 12.6666C11.333 11.9302 11.93 11.3333 12.6663 11.3333C13.4027 11.3333 13.9997 11.9302 13.9997 12.6666C13.9997 13.403 13.4027 13.9999 12.6663 13.9999C11.93 13.9999 11.333 13.403 11.333 12.6666Z" fill="#9E9E9E"/>
</svg>
