<svg xmlns="http://www.w3.org/2000/svg" width="24" height="25" fill="none"><g fill="#07145B" clip-path="url(#a)"><path d="M12 2.663c3.206 0 3.582.014 4.85.071 1.171.053 1.805.248 2.229.415.562.219.962.476 1.381.895.42.42.682.82.896 1.382.162.424.362 1.057.415 2.23.057 1.266.071 1.643.071 4.849 0 3.206-.014 3.582-.071 4.85-.053 1.171-.248 1.805-.415 2.229-.219.562-.476.962-.896 1.381-.419.42-.819.681-1.381.896-.424.162-1.058.362-2.23.414-1.267.058-1.643.072-4.849.072-3.206 0-3.582-.015-4.85-.072-1.171-.052-1.805-.247-2.229-.414a3.726 3.726 0 0 1-1.382-.896c-.419-.419-.68-.82-.895-1.381-.162-.424-.362-1.058-.415-2.23-.057-1.267-.071-1.643-.071-4.85 0-3.205.014-3.582.071-4.849.053-1.172.248-1.805.415-2.23.219-.561.476-.962.895-1.38.42-.42.82-.682 1.382-.896.424-.162 1.058-.362 2.23-.415 1.267-.062 1.648-.071 4.849-.071ZM12 .5C8.742.5 8.332.514 7.05.571 5.774.63 4.902.833 4.14 1.13a5.85 5.85 0 0 0-2.125 1.386A5.952 5.952 0 0 0 .63 4.64c-.296.762-.5 1.634-.558 2.915C.014 8.832 0 9.242 0 12.5s.014 3.668.071 4.95c.058 1.276.262 2.148.558 2.915a5.85 5.85 0 0 0 1.386 2.125 5.952 5.952 0 0 0 2.125 1.386c.762.295 1.634.5 2.915.557 1.282.058 1.687.072 4.95.072s3.668-.014 4.95-.072c1.276-.057 2.148-.262 2.915-.557a5.849 5.849 0 0 0 2.124-1.386 5.952 5.952 0 0 0 1.387-2.125c.295-.762.5-1.634.557-2.915.057-1.282.072-1.687.072-4.95s-.015-3.668-.072-4.95c-.057-1.276-.262-2.148-.557-2.915a5.85 5.85 0 0 0-1.387-2.125 5.953 5.953 0 0 0-2.124-1.386c-.762-.295-1.634-.5-2.916-.557C15.668.514 15.258.5 12 .5Z"/><path d="M12 6.34a6.165 6.165 0 1 0 .002 12.33A6.165 6.165 0 0 0 12 6.34Zm0 10.162a4.001 4.001 0 1 1-.001-8.003 4.001 4.001 0 0 1 0 8.002ZM18.407 7.531a1.439 1.439 0 1 0 0-2.877 1.439 1.439 0 0 0 0 2.877Z"/></g><defs><clipPath id="a"><path fill="#fff" d="M0 .5h24v24H0z"/></clipPath></defs></svg>