<svg width="36" height="36" viewBox="0 0 36 36" fill="none" xmlns="http://www.w3.org/2000/svg">
<path fill-rule="evenodd" clip-rule="evenodd" d="M27.0106 29.7795V9.051C27.0174 8.24858 26.7051 7.47633 26.1425 6.90415C25.5799 6.33197 24.813 6.00673 24.0106 6H12.0106C11.2082 6.00673 10.4413 6.33197 9.87866 6.90415C9.31605 7.47633 9.00378 8.24858 9.01057 9.051V29.7795C8.93926 30.378 9.23311 30.9611 9.75662 31.2598C10.2801 31.5585 10.9316 31.5149 11.4106 31.149L17.1106 26.2275C17.6244 25.7638 18.4057 25.7638 18.9196 26.2275L24.6106 31.1505C25.0898 31.5167 25.7417 31.5602 26.2653 31.2611C26.789 30.9619 27.0826 30.3783 27.0106 29.7795Z" stroke="#656565" stroke-width="1.5" stroke-linecap="round" stroke-linejoin="round"/>
</svg>
