<svg width="20" height="20" viewBox="0 0 20 20" fill="none" xmlns="http://www.w3.org/2000/svg">
<path d="M5.55068 2.01L5.55109 2.00979C6.01674 1.77202 6.54903 1.65701 7.25204 1.59865C7.94719 1.54237 8.82034 1.54199 9.97036 1.54199H9.9987H10.027C11.1774 1.54199 12.0504 1.54238 12.7452 1.59948L12.7454 1.59949C13.4483 1.657 13.9806 1.77199 14.4463 2.0098L14.4467 2.01C15.2543 2.42147 15.9109 3.07805 16.3224 3.88565L16.3226 3.88605C16.5605 4.35195 16.6762 4.88441 16.7337 5.58654C16.79 6.28176 16.7904 7.15504 16.7904 8.30533V18.3336C16.7904 18.3549 16.7849 18.3759 16.7746 18.3945C16.7642 18.4131 16.7492 18.4287 16.7311 18.44C16.713 18.4512 16.6923 18.4575 16.671 18.4585C16.6498 18.4595 16.6288 18.455 16.6098 18.4456C16.6097 18.4456 16.6096 18.4455 16.6095 18.4455L14.7131 17.4973C12.9583 16.6199 12.101 16.1923 11.2048 16.0247C10.4077 15.8751 9.58971 15.8751 8.7926 16.0247C7.8964 16.1923 7.03911 16.6199 5.28426 17.4973L3.38787 18.4446C3.36882 18.4542 3.34766 18.4586 3.3264 18.4577C3.30513 18.4567 3.28447 18.4503 3.26635 18.4392C3.24824 18.428 3.23329 18.4124 3.22291 18.3938C3.21256 18.3752 3.2071 18.3544 3.20703 18.3332V8.30533C3.20703 7.15493 3.20742 6.28198 3.26452 5.58711L3.26453 5.58693C3.32204 4.88408 3.43703 4.35174 3.67483 3.88605L3.67504 3.88565C4.08651 3.07805 4.74309 2.42147 5.55068 2.01Z" stroke="black"/>
</svg>
