<svg xmlns="http://www.w3.org/2000/svg" width="24" height="24" fill="none"><path stroke="#232323" stroke-width="1.5" d="M13.732 5.5a3.5 3.5 0 0 0 3.031 1.75c1.54 0 2.502 1.667 1.732 3a3.5 3.5 0 0 0 0 3.5c.77 1.333-.192 3-1.732 3a3.5 3.5 0 0 0-3.03 1.75c-.77 1.333-2.695 1.333-3.465 0a3.5 3.5 0 0 0-3.031-1.75c-1.54 0-2.502-1.667-1.732-3a3.5 3.5 0 0 0 0-3.5c-.77-1.333.192-3 1.732-3a3.5 3.5 0 0 0 3.031-1.75c.77-1.333 2.694-1.333 3.464 0Z"/><path stroke="#232323" stroke-linecap="round" stroke-linejoin="round" stroke-width="1.5" d="M10.5 11.95a1.499 1.499 0 1 0 2.997.1 1.499 1.499 0 0 0-2.996-.1Z"/></svg>