<svg width="24" height="24" viewBox="0 0 24 24" fill="none" xmlns="http://www.w3.org/2000/svg">
<circle cx="12" cy="12" r="12" fill="#666666"/>
<path fill-rule="evenodd" clip-rule="evenodd" d="M17.8119 11.8653H16.9136L18.5458 14.6922L20.1779 11.8653H19.3522C19.3226 10.323 18.7841 8.8322 17.8186 7.62589C16.825 6.3845 15.4384 5.51836 13.887 5.17004C12.3356 4.82171 10.7118 5.01195 9.28287 5.70945C7.85397 6.40695 6.70511 7.57014 6.02538 9.00758C5.34565 10.445 5.17555 12.071 5.54309 13.618C5.91062 15.165 6.79388 16.5408 8.0475 17.5189C9.30111 18.497 10.8504 19.0192 12.4403 18.9995C14.0302 18.9797 15.5661 18.4193 16.7951 17.4104L15.8179 16.2201C14.8593 17.0071 13.6614 17.4442 12.4212 17.4596C11.1811 17.475 9.97264 17.0677 8.99482 16.3047C8.017 15.5418 7.32806 14.4687 7.04138 13.2621C6.75471 12.0554 6.88738 10.7871 7.41757 9.66591C7.94776 8.54471 8.84387 7.63742 9.95841 7.09337C11.0729 6.54933 12.3395 6.40094 13.5496 6.67263C14.7597 6.94432 15.8413 7.61991 16.6163 8.5882C17.3632 9.52139 17.7824 10.6729 17.8119 11.8653Z" fill="#ECCD43"/>
</svg>
