<svg width="75" height="80" viewBox="0 0 75 80" fill="none" xmlns="http://www.w3.org/2000/svg">
<rect width="75" height="80" fill="white"/>
<path d="M29 44.7967C29 41.9814 31.1823 39.5834 34.1481 39.1398L34.4152 39.0998C36.79 38.7445 39.21 38.7445 41.5848 39.0998L41.8519 39.1398C44.8177 39.5834 47 41.9814 47 44.7967C47 46.0136 45.9477 47 44.6495 47H31.3505C30.0523 47 29 46.0136 29 44.7967Z" stroke="#656565" stroke-width="1.5"/>
<path d="M43.25 30.5937C43.25 33.1308 40.8995 35.1875 38 35.1875C35.1005 35.1875 32.75 33.1308 32.75 30.5937C32.75 28.0567 35.1005 26 38 26C40.8995 26 43.25 28.0567 43.25 30.5937Z" stroke="#656565" stroke-width="1.5"/>
</svg>
