<svg width="16" height="16" viewBox="0 0 16 16" fill="none" xmlns="http://www.w3.org/2000/svg">
<rect width="16" height="16" rx="8" fill="url(#paint0_linear_2957_10063)"/>
<path d="M8.00181 4.06517C9.28439 4.06517 9.43495 4.07089 9.94189 4.09376C10.4107 4.11472 10.6642 4.19286 10.8338 4.25956C11.0587 4.34722 11.2188 4.45014 11.3865 4.61784C11.5542 4.78555 11.659 4.94564 11.7447 5.17052C11.8095 5.34013 11.8896 5.5936 11.9105 6.06242C11.9334 6.56935 11.9391 6.71991 11.9391 8.00249C11.9391 9.28508 11.9334 9.43563 11.9105 9.94257C11.8896 10.4114 11.8114 10.6649 11.7447 10.8345C11.6571 11.0593 11.5542 11.2194 11.3865 11.3871C11.2188 11.5548 11.0587 11.6597 10.8338 11.7454C10.6642 11.8102 10.4107 11.8903 9.94189 11.9112C9.43495 11.9341 9.28439 11.9398 8.00181 11.9398C6.71923 11.9398 6.56867 11.9341 6.06173 11.9112C5.59292 11.8903 5.33945 11.8121 5.16983 11.7454C4.94495 11.6578 4.78487 11.5548 4.61716 11.3871C4.44945 11.2194 4.34463 11.0593 4.25888 10.8345C4.19408 10.6649 4.11404 10.4114 4.09307 9.94257C4.0702 9.43563 4.06449 9.28508 4.06449 8.00249C4.06449 6.71991 4.0702 6.56935 4.09307 6.06242C4.11404 5.5936 4.19217 5.34013 4.25888 5.17052C4.34654 4.94564 4.44945 4.78555 4.61716 4.61784C4.78487 4.45014 4.94495 4.34532 5.16983 4.25956C5.33945 4.19476 5.59292 4.11472 6.06173 4.09376C6.56867 4.06898 6.72113 4.06517 8.00181 4.06517ZM8.00181 3.19995C6.69826 3.19995 6.53437 3.20567 6.02171 3.22854C5.51097 3.25141 5.16221 3.33336 4.85729 3.45151C4.54093 3.57348 4.27412 3.73928 4.00731 4.00609C3.74051 4.2729 3.57661 4.54161 3.45273 4.85607C3.33458 5.16099 3.25263 5.50974 3.22976 6.0224C3.20689 6.53314 3.20117 6.69704 3.20117 8.00059C3.20117 9.30413 3.20689 9.46803 3.22976 9.98068C3.25263 10.4914 3.33458 10.8402 3.45273 11.147C3.5747 11.4634 3.74051 11.7302 4.00731 11.997C4.27412 12.2638 4.54283 12.4277 4.85729 12.5516C5.16221 12.6697 5.51097 12.7517 6.02362 12.7745C6.53627 12.7974 6.69826 12.8031 8.00372 12.8031C9.30917 12.8031 9.47116 12.7974 9.98381 12.7745C10.4946 12.7517 10.8433 12.6697 11.1501 12.5516C11.4665 12.4296 11.7333 12.2638 12.0001 11.997C12.2669 11.7302 12.4308 11.4615 12.5547 11.147C12.6729 10.8421 12.7548 10.4933 12.7777 9.98068C12.8005 9.46803 12.8063 9.30604 12.8063 8.00059C12.8063 6.69513 12.8005 6.53314 12.7777 6.02049C12.7548 5.50974 12.6729 5.16099 12.5547 4.85416C12.4327 4.5378 12.2669 4.27099 12.0001 4.00419C11.7333 3.73738 11.4646 3.57348 11.1501 3.44961C10.8452 3.33145 10.4965 3.2495 9.98381 3.22663C9.46925 3.20567 9.30536 3.19995 8.00181 3.19995Z" fill="white"/>
<path d="M8.00122 5.53638C6.6405 5.53638 5.53516 6.63982 5.53516 8.00244C5.53516 9.36507 6.6386 10.4685 8.00122 10.4685C9.36385 10.4685 10.4673 9.36507 10.4673 8.00244C10.4673 6.63982 9.36385 5.53638 8.00122 5.53638ZM8.00122 9.60138C7.11695 9.60138 6.40038 8.88481 6.40038 8.00054C6.40038 7.11626 7.11695 6.39969 8.00122 6.39969C8.8855 6.39969 9.60207 7.11626 9.60207 8.00054C9.60207 8.88481 8.8855 9.60138 8.00122 9.60138Z" fill="white"/>
<path d="M10.5638 6.0129C10.8817 6.0129 11.1394 5.75522 11.1394 5.43736C11.1394 5.1195 10.8817 4.86182 10.5638 4.86182C10.246 4.86182 9.98828 5.1195 9.98828 5.43736C9.98828 5.75522 10.246 6.0129 10.5638 6.0129Z" fill="white"/>
<defs>
<linearGradient id="paint0_linear_2957_10063" x1="14.8" y1="-4.4" x2="-5.2" y2="22.4" gradientUnits="userSpaceOnUse">
<stop stop-color="#3B1BFA"/>
<stop offset="0.5" stop-color="#F93131"/>
<stop offset="0.75" stop-color="#FDCA20"/>
<stop offset="1" stop-color="#C713D4"/>
</linearGradient>
</defs>
</svg>
