<svg width="24" height="24" viewBox="0 0 24 24" fill="none" xmlns="http://www.w3.org/2000/svg">
<path d="M18.6539 15.6988L18.1055 16.535L18.6539 15.6988ZM18.8007 17.2537L19.496 17.9725L18.8007 17.2537ZM12.3645 5.14857L11.4163 4.83064L12.3645 5.14857ZM12.6583 4.14085L11.6588 4.10757L12.6583 4.14085ZM11.4717 3.12524L11.2845 2.14291L11.4717 3.12524ZM13.7354 10.9161C12.8258 9.16262 12.73 7.20383 13.3126 5.4665L11.4163 4.83064C10.6686 7.06058 10.7907 9.58289 11.9601 11.8371L13.7354 10.9161ZM17.947 14.4004C16.1912 13.8761 14.645 12.6697 13.7354 10.9161L11.9601 11.8371C13.1294 14.0913 15.1211 15.6438 17.3747 16.3168L17.947 14.4004ZM17.8464 16.6694C14.4147 18.4496 10.1896 17.1107 8.40937 13.679L6.63402 14.5999C8.92284 19.0122 14.3551 20.7335 18.7674 18.4447L17.8464 16.6694ZM8.40937 13.679C6.62917 10.2473 7.96801 6.02215 11.3997 4.24196L10.4788 2.46661C6.06656 4.75543 4.3452 10.1877 6.63402 14.5999L8.40937 13.679ZM17.3747 16.3168C17.6716 16.4054 17.8714 16.4652 18.0136 16.5125C18.0834 16.5357 18.1243 16.551 18.1467 16.5603C18.1737 16.5714 18.1499 16.5641 18.1055 16.535L19.2023 14.8626C19.0176 14.7415 18.7956 14.6649 18.6449 14.6147C18.4662 14.5553 18.2306 14.4851 17.947 14.4004L17.3747 16.3168ZM18.7674 18.4447C18.9769 18.336 19.262 18.1988 19.496 17.9725L18.1055 16.535C18.1265 16.5146 18.1372 16.5117 18.1007 16.5334C18.0532 16.5616 17.9857 16.5971 17.8464 16.6694L18.7674 18.4447ZM18.1055 16.535L19.496 17.9725C20.4172 17.0814 20.274 15.5654 19.2023 14.8626L18.1055 16.535ZM13.3126 5.4665C13.4067 5.18587 13.4849 4.95283 13.5393 4.77253C13.5851 4.62042 13.6504 4.39481 13.6577 4.17412L11.6588 4.10757C11.6606 4.05448 11.6683 4.03082 11.6619 4.05926C11.6565 4.08291 11.6455 4.12518 11.6243 4.19562C11.5811 4.33906 11.5149 4.53684 11.4163 4.83064L13.3126 5.4665ZM11.3997 4.24196C11.539 4.1697 11.6069 4.13491 11.6573 4.11235C11.6961 4.095 11.6876 4.10209 11.6588 4.10757L11.2845 2.14291C10.9647 2.20383 10.6883 2.35791 10.4788 2.46661L11.3997 4.24196ZM13.6577 4.17412C13.7004 2.89314 12.5435 1.90303 11.2845 2.14291L11.6588 4.10757L13.6577 4.17412Z" fill="#292929"/>
</svg>
