<svg width="24" height="24" viewBox="0 0 24 24" fill="none" xmlns="http://www.w3.org/2000/svg">
<path d="M18.6037 6.0142L12.6894 3.47946C12.2491 3.2908 11.7509 3.2908 11.3106 3.47946L5.39626 6.0142C4.67943 6.32141 4.2524 7.0659 4.34913 7.83976L4.96212 12.7436C5.17441 14.442 6.02392 15.9962 7.33875 17.0919L10.8797 20.0427C11.5287 20.5835 12.4713 20.5835 13.1203 20.0427L16.6613 17.0919C17.9761 15.9962 18.8256 14.442 19.0379 12.7436L19.6509 7.83976C19.7476 7.06589 19.3206 6.32141 18.6037 6.0142Z" stroke="#292929" stroke-width="1.5" stroke-linecap="round"/>
<path d="M9 12L11.5687 14.5687C11.7918 14.7918 12.1633 14.7551 12.3383 14.4925L16 9" stroke="#292929" stroke-width="1.5" stroke-linecap="round"/>
</svg>
