<svg width="80" height="80" viewBox="0 0 80 80" fill="none" xmlns="http://www.w3.org/2000/svg">
<rect x="3" y="3" width="74" height="74" rx="37" stroke="#ECCD43" stroke-width="6"/>
<rect x="24" y="24" width="8" height="8" rx="4" fill="#ECCD43"/>
<rect x="48" y="24" width="8" height="8" rx="4" fill="#ECCD43"/>
<path d="M24.5307 54.9134C25.4333 51.4967 27.4416 48.475 30.2422 46.3198C33.0429 44.1647 36.4782 42.9973 40.0121 43C43.5459 43.0027 46.9795 44.1752 49.7769 46.3346C52.5742 48.494 54.578 51.5187 55.4755 54.9367L51.6005 55.9541C50.9277 53.392 49.4257 51.1246 47.3288 49.5059C45.2319 47.8873 42.658 47.0083 40.009 47.0063C37.36 47.0043 34.7849 47.8794 32.6855 49.4949C30.5862 51.1104 29.0807 53.3755 28.4041 55.9367L24.5307 54.9134Z" fill="#ECCD43"/>
</svg>
