<svg width="26" height="24" viewBox="0 0 26 24" fill="none" xmlns="http://www.w3.org/2000/svg">
<path fill-rule="evenodd" clip-rule="evenodd" d="M21.3572 11.7694H19.8178L22.6158 16.6155L25.4137 11.7694H23.9978C23.947 9.12532 23.0239 6.56956 21.3687 4.50153C19.6654 2.37343 17.2884 0.888622 14.6288 0.291492C11.9692 -0.305637 9.18557 0.0204921 6.73603 1.2162C4.28649 2.41192 2.31702 4.40596 1.15177 6.87013C-0.0134826 9.33431 -0.305075 12.1218 0.324982 14.7738C0.955039 17.4257 2.4692 19.7842 4.61826 21.461C6.76731 23.1377 9.42319 24.0329 12.1488 23.9991C14.8744 23.9653 17.5072 23.0046 19.6141 21.275L17.939 19.2345C16.2956 20.5836 14.242 21.3329 12.1161 21.3593C9.99009 21.3856 7.9185 20.6874 6.24224 19.3795C4.56598 18.0717 3.38493 16.2321 2.89349 14.1635C2.40204 12.095 2.62949 9.92076 3.53838 7.9987C4.44728 6.07665 5.98346 4.5213 7.8941 3.58864C9.80474 2.65598 11.976 2.4016 14.0505 2.86737C16.1249 3.33313 17.979 4.49127 19.3076 6.15119C20.5881 7.75103 21.3068 9.72507 21.3572 11.7694Z" fill="#07145B"/>
</svg>
