<svg width="75" height="80" viewBox="0 0 75 80" fill="none" xmlns="http://www.w3.org/2000/svg">
<rect width="75" height="80" fill="white"/>
<path d="M32.3508 28.2434L32.3504 28.2436C31.4076 28.724 30.641 29.4906 30.1606 30.4334L30.1604 30.4338C29.8806 30.9818 29.7471 31.605 29.6806 32.4178L29.6806 32.418C29.6146 33.2209 29.6143 34.2283 29.6143 35.5501V47.0822C29.6144 47.1194 29.6239 47.1559 29.642 47.1884C29.6602 47.2209 29.6864 47.2482 29.7181 47.2678C29.7498 47.2874 29.7859 47.2985 29.8232 47.3002C29.8603 47.3019 29.8973 47.2941 29.9306 47.2775C29.9306 47.2775 29.9306 47.2775 29.9306 47.2775C29.9307 47.2774 29.9307 47.2774 29.9307 47.2774L32.1116 46.1879C34.1335 45.177 35.1084 44.6916 36.1262 44.5011C37.0339 44.3308 37.9654 44.3308 38.8732 44.5011C39.8909 44.6916 40.8658 45.177 42.8877 46.1879L45.0686 47.2784L32.3508 28.2434ZM32.3508 28.2434C32.8987 27.9637 33.5219 27.8302 34.3349 27.7627C35.138 27.6976 36.1457 27.6973 37.4671 27.6973H37.4997H37.5323C38.854 27.6973 39.8615 27.6977 40.6644 27.7636L40.6645 27.7636C41.4774 27.8301 42.1006 27.9636 42.6485 28.2434L42.6489 28.2436C43.5918 28.724 44.3583 29.4906 44.8387 30.4334L44.8389 30.4338M32.3508 28.2434L44.8389 30.4338M44.8389 30.4338C45.1188 30.982 45.2532 31.6053 45.3196 32.4174C45.3847 33.2207 45.3851 34.2284 45.3851 35.5501V47.0827C45.3851 47.1199 45.3756 47.1566 45.3574 47.1892C45.3393 47.2217 45.3131 47.2491 45.2814 47.2687L45.5444 47.694M44.8389 30.4338L45.5444 47.694M45.5444 47.694L45.2814 47.2687C45.2497 47.2883 45.2135 47.2995 45.1763 47.3012C45.1391 47.3029 45.1022 47.2951 45.0689 47.2785L45.5444 47.694Z" stroke="#656565"/>
</svg>
